<svg xmlns="http://www.w3.org/2000/svg" xmlns:xlink="http://www.w3.org/1999/xlink" xml:space="preserve" version="1.1"  viewBox="0 0 301.13 301.09" x="0px" y="0px" fill-rule="evenodd" clip-rule="evenodd"><defs></defs><g><path  d="M299.27 126.88c1.22,7.72 1.86,15.63 1.86,23.69 0,11.39 -1.27,22.48 -3.67,33.15 -2.22,1.81 -4.48,3.69 -6.7,5.33 -9.01,6.63 -17.33,7.65 -27.97,8.92 -6.07,0.72 -5.58,6.42 -15.54,8.32 -5.62,1.15 -10.16,2.96 -14.4,6.94 -2.24,2.11 -3.48,4.8 -4.93,6.06 -2.43,2.12 -2.41,1.55 -4.85,4.66 -3.61,4.88 -1.95,5.04 -3.89,9.29 -0.78,1.7 -1.68,3.65 -0.38,0.35 2.22,-5.63 0.4,-5.04 4.46,-10.38 1.82,-2.43 4.13,-3.69 5.18,-5.2 5.12,-7.42 -1.49,-2.34 -4.21,-0.56 -4.4,2.89 -4.45,4.41 -9.24,2.15 -3.17,-1.49 -2.56,2.17 -6.42,-5.13 -0.56,-1.06 -1.56,-3.79 -2.14,-4.47 -0.65,0.6 -0.53,2.5 -0.52,3.34 0.06,3.9 0.28,4.23 -0.64,8.01 -0.76,3.22 -1.46,7.94 -2.91,10.73 -0.7,1.35 -6.63,8.06 -4.86,4.57 1.93,-3.79 1.74,-4.51 0.02,-8.81 -0.05,-0.13 -0.23,-0.81 -0.43,-0.76 -0.27,0.06 -0.01,0.77 0.04,0.94l0.21 0.59c2.51,7.1 -1.49,5.96 -2.39,10.53 -0.85,4.32 -2.01,5.82 -2.26,10.88 -0.45,9.13 -3.56,12.28 -4.49,19.98 -0.15,1.6 -0.25,3.19 -0.32,4.8 -0.34,8.12 -0.01,14.47 -1.85,22.11 -0.8,0.19 -1.6,0.38 -2.4,0.56 0.39,-1.15 0.7,-2.26 0.74,-3.78 0.04,-1.46 -0.52,-2.94 -0.04,-4.23 0.56,-1.52 0.53,-1.82 0.57,-3.47 0.05,-1.93 0.09,-4.1 0.02,-6.01 -0.1,-3.02 -0.18,-5.95 -0.16,-8.98 0.06,-8.46 3.67,-12.42 2.98,-20.84 -0.1,-1.27 -0.17,-2.54 -0.23,-3.82 -0.11,-2.25 0.12,-3.44 0.55,-5.64 0.73,-3.76 2.68,-7.01 4.6,-10.26 3,-5.16 5.66,-11.15 7.79,-16.72 1.58,-4.13 1.67,-7.93 2.53,-12.13 0.09,-0.44 0.82,-2.6 0.08,-2.62 -0.48,-0.02 -2.82,1.72 -3.57,2.11 -2.77,1.43 -3.56,2.94 -4.51,5.84 -0.67,2.11 -1.37,3.66 -2.61,5.5 -1.3,1.93 -2.11,2.9 -2.98,5.15 -0.7,1.8 -1.41,3.7 -2.08,5.52 -1.61,4.37 -1.87,6.33 -2.08,10.95 -0.12,2.65 -0.04,5.81 -0.49,8.37 -0.07,0.4 -0.41,2.8 -0.77,2.89 -0.31,0.07 -0.1,-0.45 -0.09,-0.53 0.35,-1.73 0.67,-3.73 0.73,-5.5 0.11,-3.07 0.06,-6.13 0.36,-9.22 0.33,-3.48 1.52,-6.61 2.72,-9.87 1.02,-2.75 1.41,-4.39 3.08,-6.94 1.28,-1.94 2.38,-3.59 2.99,-5.9 0.65,-2.46 1.05,-4.59 2.81,-6.6 1.63,-1.79 4.26,-3.6 6.19,-5.26 3.54,-3.05 8.06,-6 8.72,-10.95 -0.01,-1.95 -0.4,-2.99 -1,-4.8 -0.23,-0.7 -0.89,-1.03 -0.89,-1.26 0.02,-0.47 2.97,-1.8 3.41,-2 1.63,-0.75 6.91,-3.17 7.21,-5.06 0.27,-1.67 -4.01,1.08 -4.42,1.34 -1.61,1.01 -3.2,1.81 -4.83,2.76 -1.19,0.7 -2.21,1.15 -3.43,1.76 -2.15,1.07 -3.82,2.01 -5.5,3.77 -1.4,1.46 -2.65,2.89 -4.12,4.33 -0.71,0.7 -2.7,2.88 -3.4,3.34 -0.26,0.17 -0.77,0.29 -0.69,-0.16 0.09,-0.51 2.91,-3.41 3.39,-3.91 1.46,-1.5 2.66,-2.98 4.04,-4.52 1.93,-2.14 4.1,-3.4 6.58,-4.79 1.41,-0.79 2.58,-1.62 3.91,-2.52 2.64,-1.8 4.43,-3.62 6.78,-5.72 1.32,-1.18 2.36,-2.15 3.54,-3.49 2.03,-2.27 4.45,-4.37 7.12,-5.86 1.89,-1.03 3.47,-2.03 5.63,-2.42 4.33,-0.5 6.83,-1.96 10.67,-3.73 0.47,-0.21 0.94,-0.43 1.41,-0.65 0.91,-0.43 1.43,-0.57 2.08,-1.35 0.58,-0.71 1.06,-1.27 1.73,-1.91 0.67,-0.65 1.11,-1.25 1.69,-1.96 0.54,-0.65 1.28,-1.41 1.96,-1.89 -0.2,0.19 -0.4,0.43 -0.59,0.63 -0.85,0.9 -1.18,1.47 -1.81,2.49 -0.15,0.24 -1.08,1.58 -0.65,1.74 0.19,0.07 1.04,-0.37 1.23,-0.47 0.52,-0.26 1.03,-0.52 1.54,-0.78 1.04,-0.54 2.08,-1.12 3.12,-1.63 0.5,-0.25 0.9,-0.5 1.38,-0.76 2.51,-1.39 4.96,-2.8 7.43,-4.28 4.01,-2.41 8.07,-4.7 11.91,-7.4 0.13,-0.1 1.98,-1.28 1.58,-1.48 -0.37,-0.17 -1.54,0.44 -1.89,0.62 -1.1,0.57 -1.35,0.59 -2.56,0.8 -0.35,0.06 -0.82,0.09 -1.14,0.17 -0.28,0.07 -1.14,0.46 -1.36,0.32 -0.29,-0.19 0.47,-0.48 0.57,-0.52 0.73,-0.34 0.85,-0.3 1.58,-0.45 0.96,-0.2 1.53,-0.31 2.37,-0.84 0.63,-0.4 1.25,-0.83 1.88,-1.24 0.49,-0.28 0.82,-0.46 1.35,-0.68 2.06,-0.87 4.23,-1.94 6.4,-2.44 3.4,-0.72 8.66,-0.83 12.56,-0.73zm-148.71 -126.88c1.61,0 3.22,0.03 4.82,0.08 -1.28,7.76 -1.04,14.93 -0.13,25.09 0.68,7.56 2.4,12.24 3.67,19.34 0.45,2.8 0.36,4.71 0.5,7.48 0.31,6.49 2.28,7.89 5.48,12.76 2.94,4.48 3.7,6.24 4.96,11.41 0.36,1.48 0.6,3.58 1.16,4.86 0.46,0.98 0.93,2.14 1.44,3.06 0.63,1.07 1.37,1.73 1.44,2.98 0.09,1.43 1.5,3.23 2.37,4.33 1.17,1.45 1.48,1.6 2.84,2.56 0.38,0.27 0.65,0.77 0.27,0.61 -2.25,-0.94 -5.85,-4.87 -6.37,-7.14 -0.17,-0.72 -0.98,-1.73 -1.2,-0.81 -0.04,0.33 0.34,1.93 0.44,2.33 0.12,0.48 0.22,0.9 0.32,1.37 0.98,4.34 1.59,8.69 2.37,13.06 0.5,2.8 0.96,5.6 1.46,8.39 0.05,0.25 0.07,0.74 0.31,0.85 0.46,0.2 1.52,-0.66 1.79,-0.99 0.65,-0.78 0.56,-1.59 0.84,-2.46 0.24,-0.74 0.46,-1.27 0.57,-2.06 0.14,-0.93 0.44,-2.15 0.22,-3.07 -0.09,-0.39 -0.79,-2.03 -0.52,-2.28 0.17,-0.17 0.25,0.17 0.28,0.28 0.13,0.48 0.33,0.98 0.52,1.44 0.51,1.31 0.25,2.15 0.11,3.47 -0.09,0.81 -0.19,1.34 -0.41,2.13 -0.2,0.75 -0.16,1.42 -0.34,2.18 -0.27,1.14 -0.72,1.49 -1.35,2.41 -0.39,0.58 -1.13,1.7 -1.16,2.41 -0.01,0.35 0.52,2.45 0.64,2.94 0.67,2.65 1.22,5.31 1.58,8.02 0.05,0.37 0.1,1.04 0.18,1.37 0.11,0.45 0.27,0.71 0.74,0.44 0.65,-0.38 1.27,-1.02 1.74,-1.61 0.56,-0.7 0.92,-1.68 1.08,-2.56 0.1,-0.54 0.24,-1.02 0.38,-1.54 0.15,-0.57 0.19,-1.1 0.32,-1.66 0.16,-0.67 0.3,-1.35 0.39,-2.02 0.04,-0.23 0.15,-1.63 0.31,-1.7 -0.03,0.22 -0.05,0.44 -0.07,0.65 -0.11,1.04 -0.22,2.01 -0.45,3.04 -0.11,0.52 -0.14,1.03 -0.25,1.56 -0.1,0.46 -0.26,1 -0.32,1.45 -0.09,0.54 -0.13,0.89 -0.29,1.42 -0.26,0.85 -0.35,1.08 -0.81,1.83 -0.77,1.23 -1.58,1.78 -2.01,3.28 -0.23,0.79 -0.47,1.68 -0.46,2.5 0.02,2.41 -0.08,4.8 -0.23,7.2 -0.11,1.65 -0.26,1.5 0.41,3.05 0.46,1.08 0.8,1.53 1.45,2.45 0.52,0.74 0.47,0.96 0.78,1.67 0.34,0.79 1.01,1.46 1.02,2.35 0.01,1.05 -1.13,2.72 -1.69,3.63 -0.43,0.72 -0.64,1.34 -0.94,2.1 -0.38,0.95 -0.59,1.57 -0.71,2.61 -0.14,1.26 0.01,2 -0.52,3.24 -0.43,1.01 -0.69,1.86 -0.93,2.94 -0.27,1.22 -0.54,1.65 -1.19,2.7 -0.53,0.86 -0.35,1.17 -0.63,1.96 -0.13,0.35 -0.27,0.29 -0.19,-0.02 0.16,-0.62 0.17,-1.22 0.48,-1.8 0.45,-0.83 0.93,-1.42 1.16,-2.39 0.16,-0.69 0.3,-1.35 0.49,-2.04 0.29,-1.02 0.82,-1.86 0.88,-2.93 0.08,-1.56 0.06,-2.6 0.65,-4.09 0.17,-0.43 0.32,-0.87 0.49,-1.3 0.5,-1.23 1.28,-2.24 1.76,-3.44 0.43,-1.11 0.22,-1.5 -0.47,-2.41 -0.37,-0.48 -0.55,-0.85 -0.84,-1.36 -0.26,-0.44 -0.72,-0.82 -1.17,-1.04 -0.63,-0.3 -0.78,-0.03 -0.85,0.56 -0.7,5.41 -2.15,9.83 -4.23,14.84 -1.19,2.84 -1.47,3.89 -1.77,6.96 -0.15,1.42 -0.37,2.77 -0.58,4.18 -0.33,2.17 -0.45,3.71 -0.13,5.89 0.37,2.42 0.96,4.56 2.14,6.72 1.51,2.76 3.35,5.2 5.52,7.47 0.62,0.65 1.11,1.21 1.7,1.88 -1.11,-0.86 -2.04,-1.72 -3.07,-2.67 -1.63,-1.52 -4.4,-4.65 -5.48,-6.53 -1.19,-2.07 -2.16,-6.17 -2.37,-8.56 -0.05,-0.56 -0.03,-3.58 -0.66,-3.72 -0.57,-0.12 -2.74,2.42 -3.19,2.85 -2.39,2.22 -2.49,4.9 -1.93,7.94 0.14,0.77 0.29,1.54 0.43,2.31 0.06,0.29 0.11,0.58 0.17,0.87 0.71,3.22 1.57,3.52 3,6.13 2.12,3.87 2.64,4.87 2.37,9.36 -0.11,1.81 -0.07,3.59 0.06,5.4 0.16,2.1 0.31,4.22 0.34,6.33 0.03,2.39 0.32,3.54 0.89,5.82 0.23,0.89 0.51,1.63 0.87,2.46 1.59,3.67 1.81,4.92 1.62,8.98 -0.1,2.33 -0.32,5.58 -0.74,7.85 -0.46,2.48 -0.63,4.36 -0.75,6.88 -0.09,1.86 0.12,3.31 0.2,5.12 0.12,2.7 -0.24,4.92 0.89,7.49 0.65,1.47 1.07,2.4 1.5,3.96 0.7,2.8 0.52,5.31 0.87,8.13 0.61,4.48 0.64,7.07 -0.44,11.47 -0.58,2.35 -0.63,4.77 -0.82,7.18 -0.02,0.28 -0,0.59 -0.32,0.57 -0.08,-0.38 -0.07,-0.52 -0.05,-0.9 0.12,-2.25 0.18,-4.58 0.7,-6.77 0.96,-4.08 1.07,-6.75 0.46,-10.91 -0.32,-2.32 -0.36,-4.66 -0.69,-6.93 -0.63,-3.82 -2.53,-5.74 -2.87,-9.62 -0.11,-2.02 -0.11,-3.69 -0.38,-5.75 -0.36,-2.81 -0.23,-6.91 0.02,-9.74 0.17,-1.92 0.06,-7.94 -0.74,-9.54 -0.78,-1.56 -0.84,2.09 -0.84,2.25 -0,0.14 0,1.87 -0.01,1.88 -0.36,-1.05 -0.29,-3.26 -0.22,-4.41 0.06,-0.88 0,-1.13 0.65,-1.66 0.76,-0.63 0.24,-2.91 0.81,-3.16 0.4,-0.18 1.54,1.45 0.48,-1.72 -0.8,-2.41 -1.55,-5.35 -1.67,-7.89 -0.08,-1.98 -0.13,-3.67 -0.36,-5.67 -0.17,-1.45 -0.29,-2.81 -0.42,-4.26 -0.17,-1.86 -0.02,-3.98 -0.41,-5.76 -0.32,-1.48 -1.89,-3.9 -3.27,-4.47 -1.13,-0.47 -1.34,0.54 -1.48,1.36 -0.37,1.89 -0.32,3.07 -0.47,4.91 -0.33,4.14 -0.53,7.54 -0.05,11.71 0.04,0.34 0.98,4.84 -0.17,2.21 -0.85,-2.05 -1.16,-7.36 -1.28,-9.67 -0.04,-0.77 0.08,-2.91 -0.91,-3.07 -0.94,-0.15 -3.17,1.96 -3.83,2.56 -2.61,2.41 -2.94,6.29 -3.2,9.63 -0.15,1.98 -0.16,4.22 -0.43,6.14 -0.22,1.58 -0.37,3.05 -0.68,4.63 -0.9,4.73 -1.18,8.58 -0.33,13.38 0.3,1.72 0.47,2.52 2.1,3.09 1.03,0.36 0.55,2.64 0.41,3.53 -0.68,4.22 -1.02,5.41 -0.56,9.81 0.4,3.8 0.39,6.67 -0.22,10.48 -0.22,1.33 -0.33,2.93 -0.6,4.18 0.12,-1.92 0.5,-3.78 0.76,-5.67 0.17,-1.48 0.21,-2.84 0.26,-4.32 0.09,-3 -0.51,-5.59 -0.48,-8.5 0.02,-2.65 0.69,-4.64 0.85,-7.06 0.15,-2.13 -0.11,-1.63 -1.2,-2.34 -1.8,-1.18 -2.02,-6.51 -2.08,-8.52 -0.14,-5.09 1.15,-9.36 1.43,-14.36 0.14,-3.33 0.01,-7.13 0.69,-10.38 0.59,-2.81 1.34,-3.78 3.03,-5.96 2.12,-2.74 4.35,-6.8 4.27,-10.35 -0.02,-1.04 -0.11,-2.5 -1.33,-2.75 -1.12,-0.11 -3.76,1.7 -4.74,2.35 -1.66,1.1 -2.79,1.87 -4.61,2.74 -1.93,0.92 -3.08,1.04 -5.07,0.26 -0.93,-0.35 -1.87,-0.65 -2.78,-1.07 1.43,-0.2 2.81,0.64 4.22,0.84 1.8,0.2 4.26,-1.51 5.56,-2.66 2,-1.77 5.57,-5.44 5.1,-8.34 -0.28,-1.74 -2.1,-3.77 -3.24,-5.11 -5.34,-6.17 -5.74,-4.2 -7.14,-12.93l-0.04 -0.22c-0.94,-5.78 -3.06,-11.27 -5.69,-16.48 -0.26,-0.52 -0.91,-2.19 -1.58,-2.04 -0.85,0.19 -0.6,1.92 -0.48,2.52 0.56,2.76 1.02,4.81 0.78,7.7 -0.09,1.13 -0.3,2.45 -0.32,3.54 0.07,1.92 1.29,5.53 2,7.4 0.53,1.41 0.76,2.02 1.07,3.53 0.58,2.88 1.26,6.1 1.54,9.02 0.06,0.55 0.4,2.85 0.07,3.1 -0.61,0.46 -0.85,-2.27 -0.89,-2.61 -0.36,-2.79 -0.9,-5.2 -1.51,-7.92 -0.06,-0.26 -0.12,-0.52 -0.18,-0.78 -0.13,-0.58 -0.65,-2.32 -1.53,-1.99 -0.7,0.26 -2.06,2.28 -2.69,2.95 -1.44,1.54 -4.16,1.95 -4.12,4.44 0.02,1.47 2.35,8.13 3.03,9.95 0.57,1.51 1.32,2.92 1.48,4.52 0.17,1.72 1.38,3.13 2.41,4.45 0.58,0.74 3.28,3.81 3.11,4.52 -0.17,0.69 -0.76,-0.15 -0.9,-0.35 -1.43,-1.96 -5.15,-5.86 -5.52,-7.96 -0.2,-1.11 -0.09,-1.31 -0.57,-2.5 -0.41,-1 -0.82,-1.99 -1.22,-3.01 -0.76,-1.92 -1.33,-3.69 -1.97,-5.64 -0.33,-0.98 -0.94,-2.6 -1.14,-3.54 -0.58,-2.74 1.13,-3.85 3.03,-5.3 1.02,-0.78 1.62,-1.95 2.07,-3.13 0.64,-1.71 1.47,-4.07 1.35,-5.89 -0.13,-1.49 -0.54,-2.5 -0.56,-4.16 0.04,-2.46 0.22,-3.75 -0.33,-6.24 -0.46,-2.05 -1.26,-3.25 -1.97,-5.1 -0.82,-2.52 -0.61,-3.14 -0.41,-5.67 0.16,-1.99 -0.35,-8.52 -1.56,-10.49 -1.55,-2.55 -2.62,-6.56 -3.99,-9.52 -2.27,-4.91 -2.69,-6.39 -4.21,-11.62 -0.61,-2.08 -0.69,-4.44 -2.84,-2.56 -2.08,1.82 -2.09,3.25 -1.11,5.48 1.63,3.73 -2.72,8.36 -1.24,5.22 3.27,-6.96 -2.39,-3.88 0.33,-10.21 1.72,-3.42 2.75,-2.98 2.18,-7.19 -0.5,-3.7 -0.17,-8.2 -0.72,-11.24 -0.93,-5.19 -3.02,-3.56 -2.55,-10.57 0.39,-5.65 -1.11,-10.02 -0.67,-15.71 0.08,-1.09 0.16,-2.17 0.22,-3.26 0.19,-3.29 0.06,-6.69 0.95,-9.87 1.22,-4.35 4.52,-7.63 7.07,-11.22 0.77,-1.09 1.55,-2.2 2.34,-3.28 3.12,-4.24 5.15,-5.07 6.97,-10.42 1.13,-3.31 2.11,-6.87 3.19,-10.22 1.73,-5.4 3.19,-10.7 4.73,-16.14l0.19 -0.65c1.57,-0.06 3.15,-0.08 4.74,-0.08zm6.75 0.16c17.28,0.76 33.8,4.43 49.08,10.54 -3.64,4.71 -6.67,9.65 -8.67,14.78 -3.51,9 -7,18.51 -10.28,27.61 -3.27,9.1 0.58,16.67 -7.65,24.62 -2.67,2.38 -3.24,-0.65 -3.81,-2.61 -0.18,-0.52 -0.76,-1.18 -1.19,-0.63 -0.58,0.74 0.13,1.96 -1.18,3.6 -0.78,0.98 -1.66,-1.65 -2.02,-2.28 -0.22,-0.39 -1.13,-1.11 -0.86,-1.52 0.47,-0.71 1.69,3.06 2.27,2.7 0.67,-0.4 -0.13,-4.24 -0.18,-5.08 -0.07,-1.17 0.26,-2.43 0.19,-3.15 -0.1,-1.09 -2.27,-5.43 -2.94,-6.39 -3,-4.3 -5.84,-4.75 -6.89,-10.73 -0.45,-2.58 -0.47,-4.83 -1.08,-7.52 -0.41,-1.72 -0.84,-3.27 -1.36,-4.96 -3.37,-10.96 -3.58,-18.05 -4.06,-29.32l-0.02 -0.67c-0.06,-2.65 0.19,-5.79 0.65,-9.01zm50.34 11.05c8.77,3.59 17.11,7.99 24.96,13.09 -0.59,0.83 -1.1,1.56 -1.51,2.16 -6.16,8.99 -9.61,18.01 -9.75,29.04 0.02,7.17 1.01,12.2 5.3,18.08 3.58,4.8 6.94,7.05 7.48,13.58 0.17,4.27 -4.05,10.35 -6.29,13.94 -2.55,4.1 -4.56,8.22 -7.22,12.3 -0.48,0.72 -0.88,1.21 -1.41,1.87 -0.45,0.56 -0.68,1.11 -1.09,1.68 -0.43,0.59 -0.86,1.16 -1.31,1.72 -0.22,0.28 -1.19,1.39 -1.22,1.66 -0.12,0.81 2.09,-0.24 2.33,-0.35 0.39,-0.18 1.81,-1.02 2.16,-0.78 0.35,0.23 -0.38,0.67 -0.54,0.77 -0.77,0.49 -1.55,1 -2.32,1.47 -0.69,0.42 -1.53,0.92 -2.27,1.24 -0.64,0.28 -1.26,0.58 -1.89,0.88 -0.5,0.24 -1.04,0.45 -1.45,0.85 -1.85,1.81 -3.74,3.51 -5.73,5.18 -1.11,0.93 -1.26,1.49 -1.92,2.7 -0.26,0.48 -0.67,1.06 -0.85,1.56 -0.27,0.72 0.08,2 0.17,2.77 0.07,0.58 0.02,0.83 0.02,1.38 -0,0.33 0.15,1.41 -0.13,1.58 -0.48,0.31 -0.59,-1.73 -0.6,-1.94 -0.04,-1.11 -0.52,-2.18 -0.82,-3.26 -0.06,-0.23 -0.1,-0.63 -0.17,-0.81 -0.15,-0.41 -0.72,0.02 -0.92,0.16 -0.76,0.54 -1.28,0.91 -2.11,1.35 -1.32,0.68 -1.69,2.26 -2.42,3.53 -1,1.74 -2.32,3.76 -3.55,5.35 -1.79,2.32 -2.98,3.99 -4.24,6.68 -1.05,2.26 -2.05,4.34 -3.24,6.54 -0.92,1.7 -1.55,3.44 -2.43,5.1 -0.11,0.21 -0.8,1.41 -1.09,0.74 -0.21,-0.49 1.05,-3.23 1.3,-3.84 0.95,-2.34 2.15,-4.46 3.09,-6.82 0.74,-1.87 1.44,-3.52 2.3,-5.35 1.16,-2.48 2.82,-4.44 3.82,-7.05 0.88,-2.31 1.02,-2.99 0.78,-5.48 -0.38,-3.92 -1.27,-6.26 -2.52,-9.9 -1.11,-3.24 -2.34,-6.93 -3.13,-10.24 -0.21,-0.89 -0.44,-1.78 -0.68,-2.67 -0.17,-0.63 -0.58,-0.56 -1.14,-0.48 -0.53,0.08 -0.96,0.19 -1.52,0.22 -0.19,0.01 -0.32,0.04 -0.48,-0.07 0.19,-0.14 0.38,-0.24 0.58,-0.35 1.23,-0.71 1.91,-1.59 1.46,-3.06 -0.89,-2.89 -1.85,-5.74 -2.68,-8.65 -0.46,-1.63 -1.08,-3.52 -1.46,-5.13 -0.69,-3.34 -0.16,-6.41 1.13,-9.51 3.5,-8.43 5.41,-9.77 5.61,-19.59 0.09,-7.51 -0.31,-7.36 2.27,-14.67 2.65,-7.49 5.44,-14.89 8.17,-22.34 2.43,-6.67 5.53,-12.04 9.19,-16.84zm25.51 13.46c5.57,3.66 10.88,7.67 15.9,12.02 -2.4,4.39 -3.99,8.61 -6.57,16.96 -1.59,5.15 -4.13,16.55 -6.93,20.39 -1.7,1.48 -4.19,-0.29 -5.57,-1.45l-1.68 -1.54c-8.93,-9.66 -5.95,-27.19 -0.57,-37.95 0.91,-1.83 3.02,-4.88 5.41,-8.43zm17.22 13.19c11.08,9.82 20.7,21.25 28.5,33.92 -0.27,1.4 -0.84,2.83 -2.11,4.67 -2.27,3.07 -4.41,6.2 -6.67,9.29 -3,4.1 -3.76,5.26 -5.85,9.98 -0.42,0.94 -0.85,1.86 -1.3,2.78 -1.06,2.18 -1.74,4.04 -3.14,6.08 -2.08,3.05 -4.8,6.48 -7.09,9.42 -0.49,0.62 -1,1.19 -1.48,1.8 -0.98,1.22 -1.96,2.44 -3.02,3.61 -0.8,0.89 -1.61,1.76 -2.41,2.66 -0.72,0.8 -1.45,1.61 -2.18,2.4 -2.24,2.43 -4.43,4.83 -6.54,7.37 -0.74,0.89 -0.96,1.52 -1.39,2.58 -0.71,1.78 -1.68,3.17 -1.46,5.18 0.09,0.74 0.51,1.13 1.26,0.98 1.04,-0.21 1.81,-0.85 2.87,-1.06 0.74,-0.15 0.61,-0.09 1.25,-0.52 0.78,-0.52 0.96,-0.07 0.68,0.06 -0.26,0.12 -0.31,0.1 -0.57,0.29 -0.57,0.4 -0.51,0.41 -1.2,0.53 -0.95,0.17 -1.21,0.46 -2.02,0.8 -0.88,0.37 -1.78,0.81 -2.61,0.07 -0.79,-0.7 -0.67,-2.54 -1.08,-2.75 -0.33,-0.17 -0.8,0.43 -0.95,0.64 -1.51,2.05 -3.01,4.1 -4.59,6.09l-0.06 0.07c-1.1,1.39 -2.25,2.74 -3.44,4.05 -0.63,0.7 -0.72,0.85 -1.11,1.68 -0.28,0.58 -0.42,1.08 -0.64,1.67 -0.2,0.53 -0.41,0.91 -0.66,1.41 -0.5,1 -0.95,1.78 -1.67,2.65 -0.6,0.74 -1.22,1.36 -1.9,2.02 -0.61,0.59 -1,1.13 -1.55,1.75 -0.6,0.68 -1.28,1.25 -1.87,1.93 -0.58,0.67 -0.66,1.07 -0.94,1.84 -0.26,0.72 -0.44,1.42 -0.7,2.13 -0.32,0.88 -0.6,1.72 -0.86,2.63 -0.17,0.59 -0.43,1.4 -0.67,1.95 -0.04,0.1 -0.22,0.34 -0.24,0.12 -0.02,-0.13 0.48,-1.51 0.55,-1.78 0.29,-1.02 0.57,-1.98 0.92,-2.98 0.22,-0.63 0.36,-1.27 0.57,-1.88 0.15,-0.43 0.3,-0.95 0.49,-1.35 0.41,-0.86 1.12,-1.52 1.77,-2.19 0.75,-0.77 1.3,-1.66 2.04,-2.42 1.08,-1.13 2.35,-2.57 2.76,-4.1 0.05,-0.18 0.28,-1.15 -0.2,-0.91 -0.26,0.13 -2.18,1.97 -2.56,2.31 -2.91,2.6 -6.04,4.75 -9.24,6.95 -0.79,0.54 -1.57,1.36 -2.17,2.1 -0.61,0.75 -0.99,1.79 -1.54,2.59 -0.5,0.72 -1.01,1.28 -1.46,2.06 -0.72,1.26 -1.53,2.47 -2.07,3.83 -0.38,0.96 -0.63,1.69 -1.18,2.58 -0.37,0.59 -0.63,0.91 -1.06,1.45 -1.14,1.43 -2.82,2.81 -3.39,4.6 -0.27,0.85 -0.57,1.7 -1.04,2.46 -0.46,0.76 -0.96,1.5 -1.52,2.2 -0.45,0.57 -1.01,1.1 -1.41,1.69 -0.37,0.55 -0.57,1.08 -0.91,1.59 -0.2,0.32 -0.36,0.31 -0.15,-0.09 0.37,-0.71 0.74,-1.51 1.26,-2.11 0.56,-0.64 1.03,-1.16 1.53,-1.87 0.9,-1.28 1.5,-2.33 1.94,-3.84 0.36,-1.24 1.19,-2.32 2.04,-3.27 0.54,-0.61 0.98,-1.13 1.48,-1.77 0.96,-1.26 1.26,-1.96 1.78,-3.45 0.39,-1.15 0.82,-2.08 1.36,-3.17 0.22,-0.44 0.38,-0.81 0.57,-1.26 0.21,-0.48 0.47,-0.99 0.66,-1.46 0.07,-0.17 0.32,-0.93 -0.04,-0.94 -0.27,-0 -1.64,1.15 -1.91,1.38 -1.2,1.06 -2.45,2.23 -3.57,3.37 -1.52,1.56 -3.74,3.85 -5.1,5.44 -2.56,3.02 -3.41,7.37 -5.1,9.18 -0.5,-1.35 -0.23,-3.79 -0.18,-5.32 0.02,-0.55 0.05,-1.1 0.09,-1.65 0.22,-3.09 0.88,-5.75 1.5,-8.76 0.06,-0.28 0.32,-1.08 -0.08,-1.17 -0.5,-0.11 -1.28,0.69 -1.56,1.05 -0.54,0.68 -1.15,1.3 -1.59,2.04 -0.32,0.54 -0.65,1.09 -0.97,1.63 -0.17,0.3 -0.33,0.6 -0.5,0.89 -0.2,0.34 -0.33,0.64 -0.51,0.98 -0.38,0.7 -0.6,1.38 -0.96,2.06 -0.86,1.63 -0.94,2.35 -1.04,4.15 -0.05,0.79 0.17,1.57 0.09,2.3 -0.07,0.67 -0.22,1.26 -0.28,1.95 -0.04,0.43 -0.06,1.24 -0.14,1.61 -0.02,0.08 -0.13,0.33 -0.2,0.11 -0.04,-0.13 0.11,-2.09 0.15,-2.34 0.14,-1.09 0.29,-1.28 0.14,-2.45 -0.11,-0.91 -0.07,-1.96 0.05,-2.88 0.12,-0.92 0.42,-1.72 0.83,-2.55 0.32,-0.64 0.5,-1.29 0.81,-1.91 0.41,-0.87 0.83,-1.78 1.28,-2.62 0.48,-0.89 0.8,-1.64 1.39,-2.48 0.57,-0.8 0.91,-1.59 1.55,-2.37 0.77,-0.93 2.46,-2.39 2.83,-3.44 0.55,-1.62 1.21,-3.03 2.08,-4.51 1.26,-2.14 2.71,-3.96 4.19,-5.93 0.27,-0.36 0.21,-0.83 0.12,-1.25 -0.2,-0.95 -0.37,-1.61 -0.4,-2.59 -0.02,-0.74 0.32,-1.75 0.63,-2.42 0.38,-0.82 0.7,-1.58 0.98,-2.44 0.21,-0.68 0.55,-1.27 0.76,-1.93 0.42,-1.32 0.6,-2.17 0.69,-3.54 0.02,-0.26 0.03,-1.75 0.29,-1.81 0.2,-0.04 0.16,0.34 0.16,0.45 -0.03,1.04 -0.03,2.27 -0.22,3.28 -0.16,0.87 -0.4,1.83 -0.73,2.66 -0.28,0.73 -0.44,1.38 -0.67,2.13 -0.3,0.99 -0.73,1.82 -0.75,2.87 -0.01,0.59 0.27,1.38 0.76,1.74 0.37,0.27 0.55,0.03 0.76,-0.26 2.43,-3.19 4.84,-6.4 7.32,-9.56 0.89,-1.14 1.81,-2.26 2.7,-3.39 0.36,-0.46 0.03,-0.89 -0.29,-1.26 -0.88,-1.03 -1.19,-1.66 -1.34,-3 -0.05,-0.46 -0.16,-2.05 -0.11,-2.46 0.04,-0.3 0.27,-0.42 0.47,-0.19 0.61,0.72 0.06,3.5 1.87,4.15 0.71,0.25 1.39,0.28 1.93,-0.32 0.5,-0.56 0.98,-1.13 1.47,-1.69 5.35,-6.12 8.04,-9.85 12.13,-16.9 0.29,-0.49 0.57,-0.98 0.84,-1.48 0.18,-0.33 0.94,-1.55 0.73,-1.9 -0.25,-0.41 -1.41,0.3 -1.68,0.47 -0.41,0.28 -0.84,0.58 -1.24,0.87 -0.57,0.4 -1.13,0.74 -1.71,1.13 -0.52,0.35 -1.26,0.96 -1.77,1.21 -0.23,0.11 -0.5,0.07 -0.36,-0.18 0.13,-0.24 1.63,-1.38 1.94,-1.61 0.72,-0.53 1.35,-1.01 2.01,-1.62 0.65,-0.6 1.15,-1.05 1.86,-1.58 0.64,-0.48 1,-0.81 1.52,-1.4 1.27,-1.43 2.1,-2.44 2.92,-4.19 1.54,-3.29 3.57,-6.36 5.13,-9.56 1.67,-3.43 2.62,-5.4 2.78,-9.26 0.08,-2.05 -0.16,-3.6 -0.34,-5.59 -0.23,-3.41 0.67,-5.92 1.94,-9.02 0.86,-2.13 1.38,-3.71 1.91,-5.94 2.45,-10.29 4.7,-19.6 9.33,-28.67zm29.97 36.36c3.72,6.31 6.99,12.92 9.78,19.78 -3.24,0.09 -6,-0.24 -9.28,1.54 -3.56,2.27 -5.55,3.74 -9.71,5.03 -1.57,0.49 -5.27,1.54 -5.68,-0.9 -0.14,-1.67 3.03,-7.65 4,-9.22 2.02,-3.11 4.42,-6.18 6.54,-9.32 2.02,-2.88 3.55,-4.4 4.36,-6.9zm10.71 22.14c2.48,6.43 4.54,13.07 6.13,19.89 -1.44,0.65 -2.76,1.42 -3.85,2.33 -3.1,2.56 -3.88,3.26 -7.61,4.94 -4.86,2.19 -8.13,5.46 -12.65,8.06 -0.29,0.16 -0.57,0.31 -0.86,0.48 -0.57,0.34 -1.12,0.61 -1.7,0.93 -0.52,0.28 -1.37,0.7 -1.81,1.04 -0.51,0.39 -1.03,0.83 -1.54,1.23 -0.74,0.57 -1.46,1.21 -2.2,1.76 -0.6,0.44 -1.05,0.85 -1.59,1.37 -0.44,0.42 -0.87,0.78 -1.33,1.19 -0.71,0.64 -1.28,1.29 -2.04,1.9 -0.51,0.41 -1.1,0.7 -1.54,1.16 -0.51,0.52 -0.87,1.54 -1.27,1.88 -0.14,0.12 -0.34,0.16 -0.32,-0.05 0.01,-0.13 0.58,-1.18 0.68,-1.36 0.67,-1.28 1.17,-1.27 2.1,-2.16 0.64,-0.61 1.3,-1.42 1.83,-2.13 0.17,-0.22 0.37,-0.44 0.19,-0.67 -0.21,-0.26 -0.92,0.12 -1.14,0.23 -1.11,0.54 -2.2,1.13 -3.3,1.68 -0.99,0.5 -1.95,0.96 -2.95,1.44 -1.6,0.76 -3.11,1.52 -4.76,2.19 -0.89,0.36 -0.97,0.24 -1.47,1.11 -0.3,0.53 -0.6,1.03 -0.93,1.54 -0.54,0.81 -1.65,1.76 -2.4,2.44 -0.9,0.82 -1.76,1.39 -2.76,2.05 -0.56,0.37 -1.08,0.76 -1.65,1.11 -0.37,0.23 -1.03,0.7 -1.39,0.87 -0.15,0.07 -0.44,0.13 -0.35,-0.13 0.11,-0.3 1.66,-1.28 2.02,-1.56 0.7,-0.54 1.41,-1.07 2.12,-1.62 0.86,-0.67 2.4,-2.34 2.8,-3.33 0.1,-0.25 0.27,-0.97 -0.09,-1.09 -0.44,-0.15 -3.18,1.39 -3.72,1.69 -1.61,0.88 -3.27,1.78 -4.82,2.77 -0.5,0.32 -1.07,0.65 -1.55,0.98 -0.67,0.46 -1.37,1 -2.02,1.49 -1.04,0.81 -1.56,1.42 -2.92,1.74 -0.63,0.15 -1.12,0.31 -1.73,0.51 -0.59,0.2 -1.15,0.47 -1.74,0.64 -0.63,0.19 -1.24,0.23 -1.83,0.4 -0.37,0.1 -1.58,0.39 -1.71,0.76 -0.09,0.26 0.15,0.31 0.24,0.39 -0.22,-0.04 -0.36,-0.26 -0.24,-0.46 0.23,-0.39 1.77,-0.78 2.2,-0.87 1.19,-0.23 1.9,-0.46 2.78,-1.33 0.42,-0.41 0.91,-0.68 1.3,-1.08 1,-1.08 2.02,-2.13 3.07,-3.16 0.04,-0.04 0.08,-0.08 0.12,-0.12 0.27,-0.28 0.63,-0.65 0.87,-0.94 0.53,-0.63 0.88,-0.94 0.82,-1.82 -0.04,-0.61 -0.08,-1.12 -0.08,-1.72 0,-0.26 -0.06,-1.33 0.26,-1.38 0.36,-0.05 0.39,0.83 0.39,1.04 0.01,0.69 -0.02,1.22 0.04,1.92 0.13,1.51 -0.38,1.49 -0.91,2.7 -0.1,0.22 -0.2,0.74 0.17,0.73 0.39,-0.01 1.62,-1.27 1.88,-1.61 0.85,-1.15 0.33,-2.24 1.38,-3.41 0.94,-0.99 1.65,-1.81 2.38,-2.98 0.56,-0.9 1.01,-1.72 1.34,-2.72 0.15,-0.46 0.38,-0.78 0.56,-1.24 0.04,-0.11 0.09,-0.22 0.13,-0.33 0.1,-0.24 0.49,-1.13 0.52,-1.3 0.15,-0.73 -1.35,-1.04 -1.77,-2.02 -0.31,-0.73 -0.13,-1.38 0.12,-2.08 0.34,-0.93 0.7,-1.62 1.18,-2.48 0.24,-0.41 0.43,-0.79 0.64,-1.2 0.4,-0.76 0.77,-1.54 1.34,-2.19 0.37,-0.43 0.81,-0.93 1.2,-1.33 0.91,-0.92 1.57,-1.83 2.35,-2.84 0.53,-0.7 1.04,-1.2 1.61,-1.83 0.31,-0.35 0.91,-0.93 1.14,-1.28 0.04,0.06 -0.06,0.19 -0.1,0.23 -0.77,0.96 -1.72,1.82 -2.46,2.8 -0.52,0.69 -1.02,1.37 -1.57,2.05 -0.4,0.5 -0.8,0.87 -1.2,1.34 -0.61,0.7 -1.19,1.33 -1.61,2.16 -0.17,0.35 -0.39,0.77 -0.55,1.12 -0.39,0.85 -0.97,1.85 -1.26,2.72 -0.26,0.78 -0.76,2.39 0.41,2.67 1.15,0.26 1.99,-0.71 2.49,-1.61 0.24,-0.42 0.38,-0.85 0.59,-1.24 0.74,-1.31 1.67,-2.71 2.52,-3.95 2.08,-3.01 4.18,-6 6.25,-9.02 0.83,-1.21 1.74,-2.5 2.51,-3.74 0.4,-0.62 2.59,-3.79 0.21,-1.64 -0.7,0.59 -1.21,1.24 -1.86,1.83 -0.38,0.35 -2.2,1.8 -2.61,2.01 -0.19,0.1 -0.42,0.07 -0.33,-0.16 0.11,-0.3 1.44,-1.33 1.75,-1.6 0.74,-0.64 1.19,-1.2 1.8,-1.97 0.29,-0.37 0.61,-0.7 0.89,-1.07 0.19,-0.24 0.38,-0.49 0.57,-0.72 0.83,-0.95 1.31,-1.33 2.42,-1.96 1.24,-0.67 2.34,-1.1 3.64,-1.6 0.63,-0.25 1.26,-0.5 1.89,-0.76 4.38,-1.82 9.24,-3.78 13.19,-6.4 1.72,-1.15 4.22,-3.36 6.09,-3.81 2.15,-0.39 2.85,-0.31 4.96,-0.28 0.65,0.01 1.32,-0.02 2,-0.09zm3.52 98.21c-14.26,46.74 -50.66,83.84 -96.99,99.06 0.14,-5.6 0.35,-13.17 -0.43,-17.28 -0.39,-2.63 -0.31,-4.22 0.43,-6.78 1.24,-4.34 0.91,-3.05 0.63,-7.24 -0.11,-1.6 0.72,-5 0.44,-5.82 -1.96,-5.69 1.03,-3.72 1.12,-6.11 0.25,-6.24 -0.41,-4.17 3.23,-9.03 2.68,-3.57 3.24,-7.24 3.94,-11.61 0.09,-0.54 0.66,-7.02 0.85,-7.05 0.22,3.7 -1.36,12.32 -2.81,15.87 -2.34,5.73 -5.05,3.81 -4.95,11.18 0.06,4.48 -3.07,0.17 -0.8,7.17 0.24,0.73 -0.76,6.26 0.65,5.82 1.11,-0.35 1.67,-8.9 3.37,-11.67 2.39,-3.92 4.79,-7.8 6.73,-12 1.01,-2.19 3.15,-9.26 4.7,-10.26 1.12,1.57 -2.7,11.07 -3.46,13.02 -0.43,1.12 -4.79,9.74 -3.59,10.57 1.98,1.38 11.83,-13.89 13.11,-15.95 2.26,-3.63 1.63,-5.53 3.46,-8.19 3.85,-5.61 8.32,-11.43 13.81,-15.47 7.7,-5.39 11.93,-1.94 18.27,-8.86 5.56,-6.07 5.28,-5 12.66,-5.95 0.91,-0.12 6.5,-1.79 5.4,-1.21 -6.66,3.49 -10.41,-0.71 -15.82,5.2 -6.15,6.71 -4.89,6 -13.86,8.07l-0.87 0.24c-8.56,2.69 -13.23,9.56 -17.63,16.92 -0.6,1.01 -2.66,5.9 -0.16,3.36 6.78,-6.89 8.79,-14.1 20.05,-14.26 1.24,0.08 13.5,1.77 5.69,-0.06 -9.86,-2.26 -12.67,-2.23 -19.47,5.51 -0.81,0.93 -1.35,1.07 -0.68,0.18 11.47,-15 18.79,-2.67 27.43,-10 5.01,-4.84 2.7,-9.12 11.76,-7.33 11.13,2.19 10.3,-8.59 23.8,-10.05zm-102.86 100.87c-0.3,0.08 -0.6,0.16 -0.91,0.24 -0.09,-1.33 -0.13,-2.61 -0.15,-4.06 -0.04,-2.82 -0.08,-5.86 -0.01,-8.67 0.01,-0.41 -0.09,-1.01 0.31,-1.24 0.35,0.26 0.34,0.7 0.36,1.11 0.19,4.2 0.04,8.41 0.39,12.61zm-20.72 4.31c-1.17,0.16 -2.34,0.3 -3.52,0.43 0.07,-1.3 0.03,-2.6 -0.72,-3.14 -1.21,-0.71 -2.85,1.51 -3.38,2.39 -0.23,0.41 -0.43,0.81 -0.61,1.2 -0.69,0.06 -1.37,0.1 -2.06,0.15 0.88,-3.12 1.91,-5.85 3.71,-8.67 2.88,-4.32 4.06,-4.42 4.81,-10.09l0.03 -0.28c0.16,-1.5 0.34,-3.01 0.47,-4.51 0.52,-5.96 -0.33,-8.65 -2.98,-13.85 -2.26,-4.43 -5.5,-8.03 -5.12,-13.21 0.16,-2.24 0.46,-4.31 0.57,-6.61 0.2,-4.2 -0.32,-7.59 -0.54,-11.72 0.91,6.13 1.3,9.95 0.87,16.21 -0.36,5.3 0.62,6.83 3.68,11.06 3.88,5.35 6.22,9.51 6.17,16.39 -0.07,2.52 -0.17,5.63 -0.54,8.07l-0.06 0.41c-0.51,3.39 -1.3,6.76 -1.18,10.2 0.01,0.19 0.01,0.39 0.02,0.59 0.07,1.41 1.12,1.28 2.28,1.3 1.69,0.03 4.76,0.31 6.14,-0.59 1.78,-1.18 1.6,-3.25 1.43,-5.11 -0.29,-3.09 -0.46,-3.54 0.23,-6.74 0.26,-1.2 0.46,-2.43 0.73,-3.61 0.32,-1.39 0.9,-1.2 0.79,-0.58 -0.1,0.57 -0.16,1.5 -0.09,0.28 0.02,-0.36 0.11,-0.38 -0.17,-0.5 -0.29,0.54 -0.41,1.61 -0.52,2.23 -0.27,1.57 -0.79,3.51 -0.89,5.03 -0.14,2.26 0.86,5.77 0.34,7.57 -0.54,1.88 -1.86,2.75 -3.69,3.17 -3.06,0.7 -4.45,0.52 -6.19,2.53zm-16.72 1.34l-0.06 0 0.13 -0.78c0.22,-1.31 0.37,-2.7 0.67,-3.97 -0.14,0.81 -0.24,1.61 -0.36,2.42 -0.12,0.85 -0.26,1.61 -0.38,2.32zm-6.85 0.01c-0.71,-0.02 -1.42,-0.04 -2.13,-0.06 -0.42,-1.84 -1.13,-3.66 -2.39,-5.64 -1.47,-2.31 -3.39,-4.5 -4.97,-6.82 -3.52,-5.2 -4.77,-11.85 -5.04,-18.04 -0.16,-3.62 0.51,-6.91 0.44,-10.32 -0.01,-0.27 -0.16,-1.22 0.02,-1.22 0.87,1.46 0.54,4.76 0.48,6.46 -0.25,7.19 1.52,18.46 8.6,22.15 1.33,0.7 2.55,1.17 3.2,-0.44 0.58,-1.43 0.85,-9.95 0.94,-11.91 0.35,-9.07 1.43,-18.97 0.28,-27.92 -0.68,-5.22 -1.04,-9.87 -1.51,-15.06 0,-0.03 -1,-9.85 -0.52,-6.45 0.93,6.52 1.4,13.19 2.46,19.61 1.04,6.28 1.23,10.9 1.01,17.27 -0.22,6.69 -0.33,13.58 -0.67,20.22 -0.03,0.61 -0.06,1.22 -0.09,1.83 -0.04,0.81 -0.05,1.63 -0.08,2.44 -0.2,5.13 -2.81,3.36 -1.21,8.8 0.48,1.63 0.88,3.37 1.18,5.11zm-11.85 -0.7l-0.13 -0.01c-0.26,-2.1 -0.76,-4.1 -1.22,-6.21 0.37,1.55 0.77,3.13 1.09,4.69 0.1,0.48 0.19,0.99 0.26,1.53zm-7.73 -0.96c-1.21,-0.19 -2.42,-0.38 -3.62,-0.59 -0.81,-3.43 -1.89,-6.89 -2.9,-10.02l-0.07 -0.22c-2.94,-8.93 -2.09,-16.83 -1.59,-25.98l0.01 -0.22c0.09,-1.92 0.14,-5.94 -0.5,-7.7 -0.35,-0.96 -0.59,-1.92 -1.37,-0.49 -1.57,2.88 -1.9,6.22 -2.11,9.43 -0.06,0.89 -0.1,4.37 -0.82,4.78 -0.77,0.43 -0.67,-1.43 -0.67,-1.79 -0.02,-4.21 -0.02,-8.06 0.96,-12.19 0.54,-2.28 0.87,-4.64 0.95,-6.99 0.04,-1.3 0.18,-2.57 0.23,-3.85 0.13,-3.39 -0.03,-2.95 -0.97,-6.07 -0.44,-1.47 -0.74,-2.33 -1.39,-3.77 -1.07,-2.37 -1.69,-4.15 -2.43,-6.63 -0.65,-2.18 -1.89,-3.07 -2.47,-5.26 -0.32,-1.22 -0.54,-2.19 -0.98,-3.4 -0.41,-1.13 -0.65,-1.89 -0.93,-3.07 -0.5,-2.04 -0.51,-3.76 -0.89,-5.72 -0.32,-1.67 -1.28,-1.7 -1.37,-0.11 -0.13,2.31 0.26,5.97 0.74,8.25 0.47,2.21 0.52,3.06 0.55,5.3 0.04,2.9 -0.78,2.12 -1.06,3.88 -0.13,0.78 0.67,3.58 0.87,4.68 0.57,3.23 1.42,5.46 0.48,8.76 -0.47,1.67 -1.28,3.64 -0.42,5.29 0.68,1.3 1.18,2.12 1.74,3.52 0.38,1.13 0.66,2.18 0.81,3.37 0.19,1.64 0.17,2.9 0.03,4.54 -0.24,2.85 0.9,6.51 1.61,9.31 1.15,4.56 1.29,5.74 0.8,10.44 -0.27,2.6 0.04,3.3 0.39,5.72 0.23,1.59 0.59,2.98 1.06,4.52 0.31,1.05 0.48,2.24 0.81,3.2 0.41,1.23 1.4,-0.36 2.19,-0.73 0.55,-0.26 0.2,0.04 0.49,-0.04 0.69,-0.17 0.7,0.57 0.67,1.06 -0.12,1.82 -0.7,4.16 -1.28,5.91l-0.13 0.41c-0.55,-0.13 -1.09,-0.26 -1.63,-0.4 0.38,-0.9 0.78,-1.8 1.09,-2.8 0.31,-1 0.69,-3.33 1.34,-4 -0.2,-0.22 -0.69,0.57 -0.74,0.66 -0.09,0.15 -0.45,1.03 -0.4,0.54 0.07,-0.6 -0.72,0.6 -0.8,0.71 -1.19,1.52 -1.48,0.42 -1.65,-0.85 -0.36,-2.66 -1.34,-4.69 -1.81,-7.22 -0.37,-2.06 -0.87,-3.9 -0.75,-6.01 0.03,-0.57 0.07,-1.15 0.1,-1.72 0.31,-5.11 -0.62,-6.93 -2.09,-11.56 -0.8,-2.54 -2.24,-3.99 -2.93,-6.39 -0.74,-2.88 -1.98,-5.63 -2.83,-8.48 -0.23,-0.82 1.11,0.64 1.19,0.72 1.14,1.26 0.09,-0.87 -0.22,-1.29 -1.41,-1.86 -1.13,-0.73 -2.09,-3.3 -0.46,-1.24 -4.69,3.95 -5.37,4.32 -2.1,1.16 4.75,-7.9 4.98,-8.2 2.54,-3.3 3.13,-4.05 0.04,-7.03 -1.46,-1.39 -0.91,-1.68 -1.47,-3 -1.01,-0.86 -4.2,2.06 -4.34,-0.35 -0.19,-3.05 2.26,-4.18 2.32,-6.5 -0.11,-0.84 -0.21,-1.14 -0.66,-1.87 -1.31,-2.13 -1.3,-2.66 -1.56,-5.08 -0.15,-1.17 -0.38,-2.85 -1.3,-3.68 -1.75,-1.3 -2.8,0.07 -3.62,-2.14 -0.81,-2.17 0.04,-2.5 -2.24,-2.94 -3.19,-0.88 -4.82,-4.33 -8.89,-4.78 -3.4,-0.27 -3,0.61 -5.41,-2.5 -1.71,-2.2 -4.53,-4.89 -7.3,-5.57 -0.32,-0.05 -0.59,-0.09 -0.91,-0.09 -1.61,0.02 -1.86,1.05 -2.73,1.63 -1.42,0.94 -3.27,-2.48 -3.79,-3.39l-0.13 -0.22c-1.11,-1.86 -1.52,-1.87 -2.69,-3.33 -1.26,-1.56 -2.24,-2.89 -3.61,-4.44 -2.18,-2.45 -2.61,-3.56 -4.26,-6.2 -1.89,-3.04 -3.05,-1.69 -5.83,-3.38 -0.52,-0.46 -0.79,-0.76 -1.17,-1.34 -2.62,-3.99 -2.14,-7.52 -1.73,-11.95 0.67,-7.39 1.73,-9.66 -2.71,-16.2 -2.2,-3.25 -3.31,-6.05 -4.57,-9.74 -1.57,-4.56 -3.21,-7.9 -5.39,-12.13 -1.4,-2.72 -2.63,-1.74 -1.94,0.48 0.76,2.44 2.37,5.41 3.35,8.02 1.48,3.99 2.67,8.94 4.62,12.62 2.68,5.04 4.01,5.9 2.76,11.79 -0.28,1.34 -2.6,10.16 -4.2,9.81 -1.36,-0.3 -0.49,-5.01 -2.37,-5.23 -2.11,-0.25 -2.46,-0.27 -4.34,-1.38 -1.16,-0.72 -8.11,-8.01 -8.02,-9.28 0.2,-2.78 -8.57,-6.28 -10.52,-7.21 -1.94,-0.88 -3.85,-1.63 -5.82,-2.27 0.69,-13.54 3.17,-26.6 7.2,-38.97 3.97,1.76 7.86,3.63 11.56,6 13.2,8.64 15.57,3.15 26.19,7.74 1.06,0.55 1.75,1.06 2.65,1.84 3.7,3.16 6.98,8.5 9.4,12.74 0.98,1.71 1.4,3.55 2.39,5.12 0.5,0.72 1.48,1.26 1.89,0.2 0.31,-0.81 -0.38,-4.04 -0.53,-5.1 -0.07,-0.46 -0.3,-1.16 0.03,-1.56 1.04,1.15 1.44,4.65 1.52,6.22 0.03,1.21 0.2,1.49 0.41,2.63 0.67,3.61 0.03,3.26 2.15,6.53 1,1.53 1.99,2.72 3.11,4.13 0.87,1.1 1.24,1.92 1.99,3.04 1.21,1.81 2.87,2.87 3.96,4.54 0.62,0.96 0.65,1.26 1.53,2.2 0.78,0.83 1.38,1.48 2.13,2.35 4.85,5.7 9.81,11.32 14.13,17.43 1.47,2.07 3.18,4.61 4.41,6.82 2.9,5.17 5.76,9.78 9.39,14.49 0.7,0.91 1.7,2.26 2.45,3.07 0.81,0.87 2.09,0.81 3.16,0.54 0.85,-0.24 1.48,-0.63 2.14,-1.22 1.43,-1.28 2.77,-3.33 2.8,-5.3 0.02,-1.41 0.03,-2.65 -0.35,-4.03 -0.3,-1.08 -2.02,-5 -0.16,-5.32 0.55,-0.09 0.15,0.2 0.07,0.3 -0.52,0.73 0.88,3.34 1.22,4.12 0.99,2.25 0.94,2.88 1.25,5.24 0.26,1.94 -0.38,3.52 -1.18,5.26 -0.94,2.03 -1.57,3 -2.9,4.8 -0.71,0.96 -1.28,1.68 -0.56,2.79 1.65,2.57 2.46,4.27 2.44,7.36 -0.03,4.01 -0.34,8.1 0.44,12.07 0.35,1.76 0.68,3.07 0.86,4.88 0.04,0.45 0.25,4.23 0.92,4.23 0.83,0 0.72,-3.46 0.7,-4 -0.04,-1.72 -0.26,-3.13 -0.39,-4.8 -0.07,-0.88 -0.11,-3.78 0.64,-4.31 0.68,-0.48 1.42,2.07 1.54,2.44 2.24,6.89 3.21,13.32 3.72,20.51 0.05,0.69 0.01,2.52 0.55,2.92 0.89,0.65 2.11,-0.9 2.5,-1.52 1.65,-2.65 1.85,-8.45 2.01,-11.62 0.09,-1.96 -0.48,-4.85 -1,-6.79 -0.68,-2.55 -1.27,-3.8 -1.24,-6.59 0,-0.52 -0.04,-2.72 0.28,-2.98 0.55,-0.43 0.44,1.45 0.44,1.68 0,2.32 -0.01,3.59 0.72,5.87 0.67,2.08 1.22,4.03 1.58,6.2 0.3,1.8 0.25,2.68 0.22,4.45 -0.01,0.39 -0.02,0.78 -0.02,1.16 -0.09,4.4 -0.13,8.6 -2.49,12.45 -2.13,3.48 -3.31,5.78 -3.81,9.94 -0.98,8.19 -1.3,15.45 1.11,23.44 1.01,3.4 1.87,7.23 2.44,10.99zm-23.07 -5.39c-29.83,-9.51 -55.61,-28.06 -74.14,-52.43 1.44,-0.33 2.79,-0.91 3.92,-1.97 2.37,-2.22 4.62,-4.65 7.37,-6.43 2.45,-1.58 8.81,-3.76 11.7,-4.5 6.26,-1.55 13.94,1.69 18.8,5.59 3.52,3.29 6.17,1.02 10.14,0.45 5.3,-0.75 5.26,1.34 5.96,5.15 0.94,4.83 5.36,0.7 7.11,1.35l0.17 0.11c0.58,0.61 -0.99,3.68 -1.34,4.48l-0.12 0.29c-1.09,2.59 -1.69,4.46 0.94,6.18 2.53,1.65 3.62,1.37 2.49,4.74 -1.17,3.91 1.26,3.02 2.88,4.62 3.73,3.71 0.19,4.26 2.35,7.83 1.43,2.36 1.74,3.19 1.74,5.98 0.01,6.19 0.01,12.37 0.01,18.56zm-75.34 -54.02c-2.73,-3.69 -5.3,-7.5 -7.69,-11.44l0.98 -0.04c0.57,-0.02 1.15,-0.05 1.72,-0.07 2.04,-0.09 13.13,-0.91 12.98,2.35 -0.07,1.48 -3.99,6.39 -5.2,7.65 -0.69,0.71 -1.7,1.2 -2.81,1.56zm-9.49 -14.5c-6.8,-11.82 -12.02,-24.64 -15.42,-38.19 0.27,0.07 0.54,0.15 0.81,0.23 5.49,1.66 4.81,1.17 10.26,1.1 3,0.03 6.3,2.09 9.12,3.24 3.15,1.29 4.34,2.04 7.14,3.89 1.66,1.13 3.33,2.46 5.43,1.65 1.88,-0.62 2.86,-0.3 4.67,0.33 2.21,0.77 2.94,1.27 5.35,1.29 1.63,0.04 2.66,0.38 4.08,1.13 2.05,1.08 3.29,1.77 5.47,2.58 1.94,0.75 3.99,1.81 5.77,2.91 1.35,0.83 3.06,2.36 4.28,2.93 1.68,0.78 1.71,-0.56 2.14,-1.44 0.74,-1.08 1.72,-0.28 2.53,0.37 1.83,1.5 2.41,2.58 4.69,3.95 1.52,0.87 2.4,0.89 3.7,1.47 1.93,0.88 3.45,5.28 4.34,7.26 1.54,3.41 1.95,1.05 4.11,1.68 1.96,0.57 2.88,5.65 3.26,7.43 0.09,0.61 0.14,1.13 0.08,1.75 -0.24,2.54 -1.2,2.76 -3.31,1.64 -1.25,-0.63 -2.18,-0.85 -3.38,-1.36 -7.12,-3.07 -5.87,-1.71 -13.38,-2.8 -4.57,-0.8 -5.3,-1.69 -9.16,-3.69 -3.39,-1.43 -5.56,-0.57 -8.93,0.45 -2.48,0.73 -6.16,1.68 -8.7,1.29 -3.89,-0.6 -4.71,-1.72 -9.26,-1.3 -1.91,0.19 -3.65,0.31 -5.57,0.33 -2.85,0.03 -5.69,-0 -8.53,-0.08l-0.64 -0.02 -0.95 -0.02zm-17.21 -46.28c-1.8,-9.28 -2.74,-18.87 -2.74,-28.67 0,-1.85 0.04,-3.69 0.11,-5.52 8.09,3.24 15.03,8.54 20.85,15.17 2.92,3.32 5.37,5.14 7.7,9.1 5.43,9.22 4.94,1.62 9.09,6.52 1.43,1.75 2.43,3.43 4.04,5.18 0.92,0.98 1.75,1.94 2.54,3.02 1.76,2.41 2.84,3.34 4.06,6.25 0.32,0.76 0.96,2.24 0.94,3.03 -0.02,1.63 -3.6,1.17 -4.68,1.19 -3.34,0.18 -5.5,-0.98 -8.67,-0.83 -2.27,0.16 -4.54,-1.54 -6.44,-2.63 -3.42,-1.97 -5.69,-2.48 -9.3,-3.75 -2.89,-1.02 -5.52,-0.83 -8,-1.65 -1.58,-0.66 -2.08,-1.19 -3.11,-2.5 -2.16,-2.73 -4.05,-3.26 -6.4,-3.9zm5.76 -78.64c5.57,-15.85 13.72,-30.48 23.94,-43.39 4.35,4.22 7.89,10.83 9.21,16.24 1.03,4.68 1.76,9.6 1.81,14.39 0.05,7.72 0.87,9.14 2.44,16.32 0.88,4.48 1.26,9.1 -4.87,8.42 -2.4,-0.21 -4.67,-0.3 -7.06,-0.41 -11.87,-0.58 -13.74,-9.17 -23,-11.01 -0.92,-0.19 -1.73,-0.37 -2.47,-0.56zm25.25 -45.03c3.04,-3.72 6.24,-7.3 9.62,-10.72 0.04,0.54 0.08,1.1 0.14,1.7 0.27,3.3 -0.03,6.15 -0.78,9.36 -0.33,1.4 -0.8,4.61 -2.9,3.99 -0.89,-0.33 -1.66,-0.91 -2.4,-1.48 -1.48,-1.14 -2.52,-2 -3.67,-2.85zm13.95 -14.94c7.2,-6.75 15.08,-12.79 23.51,-18.03 -0.06,3.2 0.69,7 2.62,12.22 3.74,10.12 9.94,24.74 17.2,32.4 3.26,3.19 5.29,5.54 7.91,9.24 4.1,5.8 3.83,6.85 10.78,8.82 9.19,2.6 9.67,5.85 8.68,14.81 -0.7,6.32 1.51,13.09 1.78,19.71 0.06,5.03 5.48,8.81 7.11,2.35 0.68,-2.69 1.33,-1.9 0.85,0.18 -1.62,7.08 -8.97,2.11 -2.81,9.81 1.51,1.84 5.61,5.28 7.47,2.22 0.78,-1.27 1.24,-1.09 0.97,-0.66 -3.06,4.91 -5.26,1.81 -6.65,2.7 -0.69,0.44 3.37,8.61 3.84,9.66 0.17,0.38 0.24,0.82 0.73,0.79 0.36,-0.07 0.53,-0.08 0.81,-0.36 0.24,-0.24 1.65,-4.37 1.71,-4.85 0.41,-3.67 0.94,-0.6 0.4,1.19 -0.55,1.81 -0.43,3.14 -0.9,4.43 -0.48,1.16 -1.5,1.77 -0.99,3.15 0.98,2.68 1.76,5.33 2.33,8.14l0.09 0.5c0.18,1.11 0.28,2.06 0.29,3.19 0,0.89 -0.03,1.75 -0.13,2.63 -0.21,1.78 -0.63,2.63 -1.2,4.24 -0.16,0.44 -0.31,0.87 -0.49,1.3 -0.93,2.25 -2.65,3.27 -3.41,5.55 -0.82,2.45 -0.06,4.4 1.06,6.55 1.07,2.04 0.63,2.12 1.15,4.02 0.37,1.36 0.54,2.06 0.67,3.49 0.4,4.67 1.14,7.3 2.67,11.68 1.67,4.78 1.7,6.51 1.96,11.48 0.03,0.56 0.25,4.46 -0.57,2.01 -1.43,-4.27 -1.6,-6.63 -3.91,-10.77 -0.33,-0.59 -0.68,-1.17 -1.04,-1.74 -0.72,-1.12 -1.3,-2.44 -2.85,-1.64 -1.18,0.61 -2.56,1.91 -2.94,3.22 -0.56,1.94 0.55,5.19 0.8,7.32 0.08,0.84 0,1.68 -0.12,2.52 -0.31,2.26 -1.04,5.2 -1.7,7.4 -0.56,1.85 -1.71,2.56 -1.19,0.05 0.57,-2.76 1.25,-5.1 1.52,-7.95 0.24,-2.68 -1.07,-5.13 -1.54,-7.75 -0.71,-4.03 1.31,-4.95 2.04,-8.07 0.52,-2.24 -0.75,-6.81 -1.53,-9.01 -1.1,-3.11 -4.07,-5.28 -6.64,-7.18 -1.22,-0.89 -2.44,-1.8 -3.63,-2.72 -0.53,-0.4 -1.39,-1.15 -1.89,-1.47 -1.02,-0.66 -2.25,0.61 -2.98,1.23 -0.49,0.41 -0.98,0.82 -1.48,1.2 -0.43,0.32 -1.11,0.69 -1.44,0.97 -1.2,1 -0.46,3.69 0.13,4.89 0.44,0.92 2.3,3.6 1.13,4.36 -0.93,0.62 -2.35,-0.9 -2.89,-1.57 -0.83,-1.04 0.81,0.35 0.93,0.44 1.98,1.52 2.28,0.59 1.2,-1.24 -1.19,-2.02 -1.61,-2.47 -2.22,-4.89 -0.2,-0.81 -0.89,-2.4 -0.68,-3.1 0.29,-0.93 2.26,-1.55 2.7,-4.65l0.02 -0.22c0.16,-1.8 -0.1,-2.86 -1.62,-3.94 -1.07,-0.75 -1.67,-1.07 -2.7,-1.99 -1.93,-1.71 -3.11,-3.08 -5.57,-4.04 -0.98,-0.39 -4.74,-2.14 -5.43,-2.81 -0.44,-0.43 -0.05,-1.3 0.3,-1.22 0.19,0.12 0.08,0.33 0.74,0.68 1.36,0.72 3.32,1.58 4.82,1.87 1.72,0.33 2.72,0.52 2.03,-1.59 -0.49,-1.5 -1.13,-3 -1.65,-4.52l-0.07 -0.19c-0.64,-1.67 -1.94,-3.18 -3.16,-4.47 -1.89,-2.01 -2.52,-4.16 -2.86,-6.84 -0.07,-0.9 -0.08,-1.78 -0.13,-2.67 -0.02,-0.42 -0.65,-2.83 -0.6,-2.93 0.86,0.46 1.41,6.24 2.08,8.09 0.33,0.64 1.43,2.11 1.94,0.84 0.11,-1.28 0.06,-2.76 -0.03,-4.05 -0.35,-5.69 -0.89,-3.62 -2.14,-7.3 -1.77,-5.19 -0.35,-4.18 0.09,-7.34 0.75,-5.35 0.89,-0.85 0.22,1.56 -0.39,1.39 -0.09,4.32 1.24,5.17 0.66,-1.13 1.11,-7.43 1.17,-9.02 0.25,-6.72 -4.11,-9.18 -1.12,-14.69 3.47,-6.43 1.62,-6.99 1.63,-13.77 -0.01,-4.74 -2.17,-8.83 -2.44,-13.5 -0.12,-1.96 -1.64,-1.09 -1.69,0.95 -0.1,4.02 1.81,7.79 1.45,12.17 -0.31,3.64 0.14,8.41 -4.24,9.4 -5.57,1.26 -9.98,-4.78 -11.86,-9.23 -1.45,-4.46 -3.06,-9.06 -4.22,-13.59 -0.76,-2.96 -1.52,-5.53 -2.39,-8.44 -0.35,-1.16 -1.52,-6.11 -2.89,-6.34 -0.69,-0.11 -0.19,0.37 -0.05,0.62 0.46,0.85 3.17,11.32 3.48,12.81 0.81,3.89 1.72,7.44 2.76,11.27 0.58,2.3 1.09,5 1.9,7.19 2.19,5.26 3.84,6.06 8.2,9.36 3.39,2.56 5.48,6.34 6.84,10.33 1.35,3.98 -0.41,12.67 -1.56,16.81 -1.06,3.8 -1.33,5.64 -1.97,9.47 -0.23,1.23 -0.74,1.96 -1,3.05 -0.35,2.15 -0.27,3.87 0.43,5.94 0.28,0.82 0.95,2.15 1.09,2.84 0.31,1.51 -1.73,1.93 -0.31,3.46 0.26,0.27 0.5,0.51 0.78,0.76 1.48,1.27 2.91,1.94 3.83,3.78 0.55,1.09 0.88,1.5 1.73,2.37 0.95,0.97 2.06,2.24 2.75,3.41 0.99,1.7 -1.42,-1.01 -1.53,-1.12 -0.94,-1.02 -1.61,-1.47 -2.63,-2.32 -1.16,-0.96 -1.81,-1.91 -2.83,-2.96 -1.3,-1.3 -3.37,-2.65 -3.7,-4.49 -0.23,-1.29 -0.22,-1.44 -1.01,-2.62 -0.87,-1.3 -1.67,-2.39 -2.45,-3.76 -1.38,-2.47 -1.8,-3.56 -3.87,-5.67 -0.43,-0.44 -0.87,-0.87 -1.31,-1.29 -0.39,-0.37 -0.75,-0.74 -1.11,-1.14 -1.91,-2.1 -3.65,-4.35 -5.41,-6.58 -0.42,-0.54 -1.04,-1 -1.73,-0.52 -0.19,0.17 -0.3,0.24 -0.41,0.48 -0.91,1.88 2.2,5 3.07,6.65 1.13,2.14 1.28,2.22 2.87,3.9 0.71,0.76 2.59,3.47 3.09,4.43 0.05,0.1 0.36,0.93 0.03,0.68 -0.48,-0.36 -2.54,-3.57 -3.32,-4.42 -1.39,-1.54 -1.98,-1.76 -3.08,-3.7 -0.75,-1.33 -1.24,-1.85 -2.19,-3.01 -1.29,-1.58 -1.57,-2.13 -2.13,-4.05 -0.11,-0.38 -0.23,-0.7 -0.38,-1.06 -0.8,-1.93 -1.04,-2.11 -1.37,-4.3 -0.22,-1.44 -0.63,-2.5 -1.16,-3.85 -1.07,-2.8 -1.09,-4.03 -3.2,-6.39 -2.72,-3.07 -3.81,-4.76 -5.92,-8.24 -2.01,-3.27 -3.17,-4.24 -4.11,-8.15 -0.71,-3 -1.34,-5.53 -2.26,-8.48 -0.32,-1.01 -0.66,-2 -1,-3.01 -1.41,-4.52 -1.67,-7.53 -1.78,-12.21 -0.12,-4.56 -0.61,-8.68 -1.17,-13.19 -0.76,-5.98 -1.25,-7.53 0.17,-13.58 2,-8.16 2.52,-11.51 2.81,-19.91l0 -0.02zm26.1 -19.61l0.85 -0.5c-0.41,3.34 0.06,7.32 1.96,12.95 3.58,10.54 7.83,23.18 15.29,31.49 3.42,3.55 6.32,6.78 9.61,10.39 2.83,3.07 3.5,4.08 7.86,4.06 5.61,-0.02 6.66,0.19 7.02,-5.39 0.26,-4.01 0.63,-7.24 1.02,-11.19 0.21,-2.57 0.35,-5.13 0.45,-7.71 0.13,-3.14 0.39,-6.16 0.47,-9.33 0.14,-5.84 0.8,-11.03 1.55,-16.78 1.42,-10.94 -0.95,-17.76 -1.94,-25.45 -15.41,3.41 -29.94,9.17 -43.18,16.89 -0.94,5.28 0.54,9.71 3.54,17.96 1.28,3.52 2.6,7.09 4.11,10.51 3.3,7.26 5.26,11.82 11.04,17.62 2.82,2.89 10.06,12.31 13.68,12.74 2.01,0.24 7.93,0.5 8.74,-1.83 0.61,-1.78 0.8,-9.51 1.1,-12.07 0.64,-5.51 0.83,-11.09 1.24,-16.64 0.31,-4.57 0.24,-8.77 0.76,-13.41 0.11,-0.94 0.22,-1.88 0.35,-2.82l0.06 -0.41c1.96,-12.81 -0.2,-17.61 -1.43,-28.56l0.23 -0.05c0.15,1.39 0.33,2.86 0.56,4.44 2.06,13.8 2.25,13.53 0.43,27.15l-0.09 0.83c-0.51,4.55 -0.24,8.66 -0.57,13.11 -0.4,4.72 -0.54,9.33 -0.88,14.04 -0.34,4.5 -0.3,6.61 -0.2,11.02 0.1,4.43 -0.04,5.62 -4.49,6.19 -7.24,0.94 -8.66,-0.52 -13.04,-5.84 -2.78,-3.3 -5.57,-6.09 -8.44,-9.24 -4.65,-5.27 -8.26,-12.07 -10.75,-18.61 -2.42,-6.35 -7.79,-19.26 -6.96,-25.57zm46.93 -18.06c7.55,-1.52 15.3,-2.46 23.21,-2.81 -0.89,2.92 -1.63,5.46 -1.89,6.34 -1.73,5.76 -3.65,11.22 -5.62,16.89 -1.43,4.12 -1.9,5.59 -5.1,8.66 -1.77,1.71 -4.44,4.61 -6.23,6.02 -3.07,2.24 -3.55,-0.64 -3.29,-3.16 0.78,-7.39 1.59,-12.24 0.68,-19.82 -0.66,-4.9 -1.32,-8.72 -1.75,-12.11z"></path></g></svg>